PathFileType  4	(X/Y/Z) C:\Users\antoi\Documents\MyRepositories\mobilecap\ResultsAnalysis
DataRate	CameraRate	NumFrames	NumMarkers	Units	OrigDataRate	OrigDataStartFrame	OrigNumFrames
100.0	100.0	5	51	mm	100.0	145	289
Frame#	Time	r_knee			r_shank_antsup			r_ankle			r_calc			r_5meta			r_toe			L_knee			L_shank_antsup			L_ankle			L_calc			L_5meta			L_toe			r_sh2			r_sh3			r_sh4			L_sh2			L_sh3			r_thigh1			r_thigh2			r_thigh3			r_thigh4			r_thigh5			L_thigh1			L_thigh2			L_thigh3			L_thigh4			r.ASIS			r.PSIS			L.ASIS			L.PSIS			C7			R_Shoulder			L_Shoulder			R_Sternum			L_Sternum			R_humerus			R_elbow_med			R_elbow_lat			R_forearm			R_wrist_radius			R_wrist_ulna			L_humerus			L_elbow_med			L_elbow_lat			L_forearm			L_wrist_radius			L_wrist_ulna			R_HJC			L_HJC			R_HJC_reg			L_HJC_reg			
		X1	Y1	Z1	X2	Y2	Z2	X3	Y3	Z3	X4	Y4	Z4	X5	Y5	Z5	X6	Y6	Z6	X7	Y7	Z7	X8	Y8	Z8	X9	Y9	Z9	X10	Y10	Z10	X11	Y11	Z11	X12	Y12	Z12	X13	Y13	Z13	X14	Y14	Z14	X15	Y15	Z15	X16	Y16	Z16	X17	Y17	Z17	X18	Y18	Z18	X19	Y19	Z19	X20	Y20	Z20	X21	Y21	Z21	X22	Y22	Z22	X23	Y23	Z23	X24	Y24	Z24	X25	Y25	Z25	X26	Y26	Z26	X27	Y27	Z27	X28	Y28	Z28	X29	Y29	Z29	X30	Y30	Z30	X31	Y31	Z31	X32	Y32	Z32	X33	Y33	Z33	X34	Y34	Z34	X35	Y35	Z35	X36	Y36	Z36	X37	Y37	Z37	X38	Y38	Z38	X39	Y39	Z39	X40	Y40	Z40	X41	Y41	Z41	X42	Y42	Z42	X43	Y43	Z43	X44	Y44	Z44	X45	Y45	Z45	X46	Y46	Z46	X47	Y47	Z47	X48	Y48	Z48	X49	Y49	Z49	X50	Y50	Z50	X51	Y51	Z51	

145	1.44000000	-383.82232	742.80787	-396.67049	-347.08856	670.06225	-379.54665	-317.03705	306.29269	-391.24120	-374.58227	273.08811	-449.32702	-190.03233	196.27734	-364.87860	-145.97214	230.17401	-409.83534	-416.24317	737.56210	-758.97855	-369.29167	630.61389	-789.93559	-348.26793	294.03593	-778.67685	-405.76232	265.03703	-716.27523	-218.58842	176.65137	-816.52592	-176.94569	217.43264	-773.41394	-328.27621	559.19193	-365.29496	-421.83996	656.89654	-372.76856	-408.45550	541.88244	-370.76108	-457.87846	621.64992	-773.95153	-433.34387	503.61197	-783.38790	-396.04394	1071.59978	-377.80106	-358.93942	966.92805	-380.98145	-403.50969	923.86029	-356.63271	-501.28296	1027.98465	-386.75702	-455.79603	921.01326	-375.91822	-426.53644	1068.17621	-770.69132	-386.78039	935.83328	-779.96484	-536.73853	1030.89783	-746.70794	-489.10063	901.32873	-764.71733	-398.79981	1255.54185	-447.32773	-592.55925	1295.70321	-510.88222	-422.55831	1246.36263	-709.92038	-602.60622	1291.16704	-615.31105	-564.58502	1812.77366	-579.93939	-535.44607	1817.05573	-471.41618	-535.15275	1818.45442	-685.31872	-415.68541	1722.09977	-545.32955	-420.26743	1719.39454	-615.59079	-627.15777	1862.16023	-256.20470	-615.65503	1810.10076	-137.52691	-662.43368	1880.14264	-171.90112	-543.24760	1985.53627	-149.38487	-443.67563	2039.17646	-133.36445	-475.70314	2055.77805	-105.80515	-647.03336	1822.35808	-885.73585	-680.87369	1742.42493	-991.00161	-699.93136	1818.45347	-966.33144	-571.58189	1920.19178	-1030.52149	-486.86471	1961.97277	-1044.15362	-500.03719	1966.22767	-1077.08947	-482.64725	1177.80713	-446.27600	-501.33072	1169.93157	-675.75040	-476.06934	1180.17287	-474.37236	-492.73227	1172.65139	-647.53465	
146	1.45000000	-363.74633	723.47649	-395.11514	-328.31557	649.89022	-377.30592	-306.43299	285.93373	-389.78891	-364.50812	253.95024	-448.31793	-182.19291	173.31187	-362.40177	-137.42409	205.47140	-407.73250	-395.35506	718.10558	-760.91932	-350.01849	610.13566	-792.27616	-335.22094	273.62379	-779.03797	-392.97455	246.81484	-716.03455	-208.63787	152.61070	-817.29805	-166.13190	192.14406	-773.40750	-312.29137	538.44042	-363.50344	-403.24107	638.45902	-371.29674	-392.83896	522.97912	-369.82073	-438.68766	602.87860	-775.18572	-416.46350	484.34561	-784.11178	-381.41059	1052.95190	-378.13895	-341.99943	949.03397	-380.51670	-385.67965	905.05821	-356.42924	-485.73703	1007.08611	-385.76909	-437.76772	901.03512	-375.20154	-412.41093	1049.12092	-771.53075	-369.86048	917.72277	-781.75780	-521.61528	1009.15615	-746.83428	-471.31022	880.91279	-766.14964	-387.16900	1234.74351	-447.63216	-581.51641	1273.21850	-510.31954	-412.49665	1225.20929	-710.05751	-592.09804	1268.66700	-614.51326	-553.46924	1790.39147	-580.43592	-524.89029	1794.42985	-471.47588	-524.60680	1795.55006	-685.83197	-405.49496	1698.83381	-546.53587	-410.25105	1695.84700	-616.17935	-625.80484	1830.18619	-256.53204	-618.08932	1773.61700	-138.90201	-664.49780	1844.25704	-172.93512	-545.88144	1949.27469	-148.44655	-447.00435	2003.49668	-130.82846	-479.36345	2018.80420	-103.32655	-646.74831	1793.05576	-882.37183	-686.56325	1708.59574	-982.23227	-703.53968	1785.94906	-960.22194	-577.07404	1882.07874	-1035.00992	-492.59136	1921.56835	-1054.83552	-507.19947	1924.59197	-1086.42520	-470.38826	1156.31942	-446.11734	-490.29973	1148.16088	-675.47856	-463.97220	1158.55938	-474.27910	-481.54632	1150.99961	-647.34362	
147	1.46000000	-342.41746	703.79329	-393.24065	-308.96616	629.23001	-374.67613	-296.84994	265.28197	-389.02910	-355.48693	235.80340	-448.68230	-177.28357	149.13480	-359.90032	-131.13791	178.77172	-405.92042	-373.11892	698.38017	-763.26780	-329.78915	589.16935	-794.76198	-323.12496	252.95421	-778.94563	-381.42879	228.71277	-715.59107	-200.47064	127.85909	-817.04174	-156.91884	165.62373	-772.19745	-296.14343	516.97594	-361.76925	-384.02497	619.75393	-369.86293	-377.11079	503.89683	-369.07357	-418.58383	584.09092	-776.96668	-399.21759	464.98452	-785.08894	-366.43645	1033.60745	-378.62440	-324.14520	930.85475	-380.47141	-366.51327	885.92059	-356.25947	-469.56582	984.96065	-384.38167	-418.67905	880.32095	-374.03073	-397.94001	1029.61937	-771.75583	-351.88765	899.60282	-783.70478	-505.86724	986.44165	-746.95976	-452.45351	859.66084	-767.61423	-376.34216	1213.10963	-447.92192	-571.25435	1249.89319	-509.36995	-402.85120	1203.09400	-709.66474	-582.22361	1245.10433	-613.75689	-542.48534	1766.98186	-580.88364	-514.21832	1771.08125	-471.61665	-514.17046	1771.53718	-686.58444	-395.10135	1674.48873	-548.08883	-400.28359	1671.06075	-616.71192	-623.91439	1796.25086	-256.88810	-620.01401	1734.21741	-141.20813	-666.08904	1805.58734	-174.37253	-548.69347	1910.05163	-147.52320	-449.81538	1964.73757	-128.78454	-482.37183	1978.84136	-101.41015	-645.69522	1762.39914	-878.25021	-691.94656	1672.80522	-971.93885	-706.21960	1751.49060	-953.51801	-581.96260	1840.55812	-1039.31214	-497.14381	1876.98059	-1065.30997	-514.70981	1877.81944	-1096.01907	-458.85924	1134.00298	-445.66787	-479.78554	1125.40570	-674.92188	-452.68952	1136.42662	-474.07948	-470.82684	1128.50802	-646.70845	
148	1.47000000	-319.77596	683.97027	-391.40969	-288.95638	608.06190	-372.24917	-288.94652	244.63999	-389.17907	-347.81838	218.45495	-449.93346	-174.88159	124.02657	-358.84801	-126.84372	151.18032	-404.76158	-349.31185	678.58276	-766.00936	-308.61859	567.59982	-796.42657	-312.40499	232.39371	-778.49712	-371.67572	210.88175	-715.49085	-193.91894	101.71366	-814.05581	-148.81943	138.53221	-770.39411	-279.78974	495.24196	-360.09587	-364.52230	600.86483	-368.93589	-360.98243	484.86149	-368.64223	-397.45813	565.70526	-779.33235	-381.55493	446.14067	-786.27569	-351.11133	1013.54071	-379.18649	-305.65660	912.35283	-380.70754	-346.40081	866.35260	-355.95489	-452.87622	961.73030	-382.74425	-398.66313	858.65802	-373.00759	-383.17653	1009.48375	-771.11248	-332.67495	881.17115	-785.12744	-489.68111	962.54583	-747.14736	-432.37142	837.46298	-769.02947	-366.40076	1190.56649	-448.24590	-562.02541	1225.60644	-508.03279	-393.66369	1180.08353	-708.90049	-572.93914	1220.41857	-612.98975	-531.39847	1742.59068	-581.16706	-503.32184	1746.77782	-471.51328	-503.68522	1746.60408	-687.50328	-384.81747	1648.77467	-549.31066	-389.36426	1647.68420	-617.80121	-621.41915	1760.45382	-257.44923	-621.02382	1691.92029	-144.55403	-666.99468	1764.16076	-176.17921	-552.65017	1867.40347	-146.04020	-451.93283	1922.49714	-127.31692	-484.47774	1935.98405	-99.86946	-643.72847	1730.06282	-873.84794	-696.15017	1635.14993	-960.44844	-707.65400	1715.03216	-946.25808	-586.21278	1795.29848	-1043.53680	-500.60815	1828.15854	-1076.38404	-521.81907	1825.69780	-1106.59533	-448.10522	1110.73737	-445.02608	-469.82375	1101.69453	-674.18954	-442.51330	1113.61817	-474.05621	-460.39808	1105.11827	-646.02810	
149	1.48000000	-295.82527	664.11214	-390.68660	-267.67601	586.57251	-370.75861	-282.46386	224.53449	-389.63769	-341.37255	201.73563	-450.67067	-173.78293	98.10610	-360.04456	-123.66208	123.24550	-405.02469	-323.73544	658.63641	-768.52492	-286.63618	545.67109	-797.10274	-301.84715	212.14923	-778.11644	-362.63023	193.83843	-716.15625	-187.95159	73.94827	-808.69322	-141.86800	110.93697	-766.89728	-263.01697	473.70990	-358.98329	-343.77214	582.61920	-368.36198	-344.28641	466.64552	-368.58599	-375.33283	547.86817	-782.01281	-363.52848	428.00301	-787.33260	-335.79774	992.57386	-379.50980	-286.94458	893.48923	-380.74423	-325.70554	846.00442	-355.56230	-435.93388	937.46623	-380.86232	-377.76632	836.02098	-372.15860	-368.29962	988.44221	-770.17127	-312.34744	862.35229	-785.35673	-473.15563	937.34890	-748.01845	-410.81725	814.50837	-770.63097	-357.27426	1167.02453	-448.40003	-553.58291	1199.94210	-506.81146	-384.86867	1156.25079	-707.92461	-564.11504	1194.38962	-612.26008	-519.84951	1717.16463	-581.31383	-492.13274	1721.44251	-470.99489	-492.87971	1720.80381	-688.63667	-374.40271	1622.44372	-549.70232	-376.38165	1628.01515	-619.63638	-618.43612	1722.95612	-258.90243	-620.84718	1646.92198	-149.03986	-667.24896	1720.19121	-178.52282	-555.32302	1821.53917	-145.24473	-452.86251	1876.94129	-126.53030	-485.34598	1890.03830	-98.18981	-641.13723	1695.50818	-870.00694	-698.48589	1595.92028	-947.69504	-707.61563	1676.65039	-938.61576	-589.89322	1746.19641	-1047.65926	-504.26700	1774.39014	-1087.92186	-528.30293	1769.37543	-1117.92559	-437.96065	1086.30143	-444.36976	-460.07661	1076.95638	-673.48337	-433.05955	1089.73049	-474.08972	-450.17130	1080.70995	-645.39860	
